<mxfile host="app.diagrams.net" modified="2022-12-22T09:28:54.628Z" agent="5.0 (Macintosh; Intel Mac OS X 10_15_7) AppleWebKit/605.1.15 (KHTML, like Gecko) Version/16.2 Safari/605.1.15" etag="zG3aXYpNCNMIEu9tf5JF" version="20.7.4" type="github">
  <diagram id="jJmVu1tqsUVlsEEVzgBu" name="Page-1">
    <mxGraphModel dx="1176" dy="735" grid="1" gridSize="10" guides="1" tooltips="1" connect="1" arrows="1" fold="1" page="1" pageScale="1" pageWidth="827" pageHeight="1169" math="0" shadow="0">
      <root>
        <mxCell id="0" />
        <mxCell id="1" parent="0" />
        <mxCell id="b0aSzvomN3RKFE0oFQqu-1" value="Data Factory" style="aspect=fixed;html=1;points=[];align=center;image;fontSize=12;image=img/lib/azure2/databases/Data_Factory.svg;" vertex="1" parent="1">
          <mxGeometry x="460" y="300" width="68" height="68" as="geometry" />
        </mxCell>
        <mxCell id="b0aSzvomN3RKFE0oFQqu-2" value="Synapse" style="aspect=fixed;html=1;points=[];align=center;image;fontSize=12;image=img/lib/azure2/databases/Azure_Synapse_Analytics.svg;" vertex="1" parent="1">
          <mxGeometry x="610" y="310" width="60" height="69" as="geometry" />
        </mxCell>
        <mxCell id="b0aSzvomN3RKFE0oFQqu-3" value="" style="aspect=fixed;html=1;points=[];align=center;image;fontSize=12;image=img/lib/azure2/identity/Users.svg;" vertex="1" parent="1">
          <mxGeometry x="720" y="640" width="64" height="70" as="geometry" />
        </mxCell>
        <mxCell id="b0aSzvomN3RKFE0oFQqu-4" value="" style="aspect=fixed;html=1;points=[];align=center;image;fontSize=12;image=img/lib/azure2/identity/Azure_Active_Directory.svg;" vertex="1" parent="1">
          <mxGeometry x="630" y="553" width="70" height="64" as="geometry" />
        </mxCell>
        <mxCell id="b0aSzvomN3RKFE0oFQqu-5" value="MS Purview" style="aspect=fixed;html=1;points=[];align=center;image;fontSize=12;image=img/lib/azure2/databases/Azure_Purview_Accounts.svg;" vertex="1" parent="1">
          <mxGeometry x="300" y="150" width="68" height="42" as="geometry" />
        </mxCell>
        <mxCell id="b0aSzvomN3RKFE0oFQqu-6" value="Trust Data Source" style="fontColor=#0066CC;verticalAlign=top;verticalLabelPosition=bottom;labelPosition=center;align=center;html=1;outlineConnect=0;fillColor=#CCCCCC;strokeColor=#6881B3;gradientColor=none;gradientDirection=north;strokeWidth=2;shape=mxgraph.networks.storage;" vertex="1" parent="1">
          <mxGeometry x="20" y="130" width="100" height="100" as="geometry" />
        </mxCell>
      </root>
    </mxGraphModel>
  </diagram>
</mxfile>
